<svg width="1680" height="980" viewBox="0 0 1680 980" fill="none" xmlns="http://www.w3.org/2000/svg">
  <rect width="1680" height="980" fill="#F2F3F7"/>
  <text x="60" y="72" fill="#20242C" font-family="Arial" font-size="34" font-weight="700">Variant 3: Minimal Focus Workspace</text>
  <text x="60" y="108" fill="#5E6674" font-family="Arial" font-size="18">Cleaner and calmer. Best if we want a modern product feel with fewer visual elements.</text>

  <rect x="40" y="140" width="770" height="790" rx="28" fill="#FFFFFF" stroke="#D9DDE5" stroke-width="2"/>
  <rect x="870" y="140" width="770" height="790" rx="28" fill="#13161C" stroke="#343946" stroke-width="2"/>

  <text x="74" y="188" fill="#1F242C" font-family="Arial" font-size="28" font-weight="700">Light Theme</text>
  <text x="904" y="188" fill="#F6F8FC" font-family="Arial" font-size="28" font-weight="700">Dark Theme</text>

  <rect x="78" y="224" width="694" height="72" rx="24" fill="#F7F8FB" stroke="#E1E5ED"/>
  <text x="110" y="268" fill="#21262E" font-family="Arial" font-size="30" font-weight="700">Personal Finance Studio</text>
  <rect x="668" y="242" width="76" height="34" rx="17" fill="#E7EAF2"/>
  <circle cx="686" cy="259" r="12" fill="#FFFFFF"/>
  <rect x="908" y="224" width="694" height="72" rx="24" fill="#191D26" stroke="#353A47"/>
  <text x="940" y="268" fill="#F3F6FC" font-family="Arial" font-size="30" font-weight="700">Personal Finance Studio</text>
  <rect x="1498" y="242" width="76" height="34" rx="17" fill="#2B3140"/>
  <circle cx="1558" cy="259" r="12" fill="#A5FF7A"/>

  <rect x="78" y="324" width="426" height="470" rx="30" fill="#FFFFFF" stroke="#E1E5ED"/>
  <text x="112" y="372" fill="#20252D" font-family="Arial" font-size="27" font-weight="700">This Month</text>
  <circle cx="290" cy="552" r="108" stroke="#ECEFF5" stroke-width="36"/>
  <circle cx="290" cy="552" r="108" stroke="#7AA8FF" stroke-width="36" stroke-dasharray="190 680" transform="rotate(-90 290 552)"/>
  <circle cx="290" cy="552" r="108" stroke="#74D39B" stroke-width="36" stroke-dasharray="150 720" stroke-dashoffset="-190" transform="rotate(-90 290 552)"/>
  <circle cx="290" cy="552" r="108" stroke="#FFB45E" stroke-width="36" stroke-dasharray="110 760" stroke-dashoffset="-340" transform="rotate(-90 290 552)"/>
  <circle cx="290" cy="552" r="108" stroke="#FF8F8F" stroke-width="36" stroke-dasharray="80 790" stroke-dashoffset="-450" transform="rotate(-90 290 552)"/>
  <text x="248" y="546" fill="#7B8493" font-family="Arial" font-size="16">Spent</text>
  <text x="226" y="582" fill="#1B2028" font-family="Arial" font-size="34" font-weight="700">$1,284</text>
  <text x="112" y="740" fill="#586272" font-family="Arial" font-size="18">Food 42%</text>
  <text x="260" y="740" fill="#586272" font-family="Arial" font-size="18">Utilities 28%</text>
  <text x="112" y="772" fill="#586272" font-family="Arial" font-size="18">Transport 18%</text>
  <text x="260" y="772" fill="#586272" font-family="Arial" font-size="18">Other 12%</text>

  <rect x="526" y="324" width="246" height="220" rx="26" fill="#F8FAFD" stroke="#E1E5ED"/>
  <text x="554" y="370" fill="#20252D" font-family="Arial" font-size="24" font-weight="700">Fast Actions</text>
  <rect x="554" y="396" width="190" height="42" rx="14" fill="#21262E"/>
  <text x="597" y="423" fill="#F7F9FC" font-family="Arial" font-size="18" font-weight="700">Add Purchase</text>
  <rect x="554" y="452" width="190" height="42" rx="14" fill="#EDF2FF"/>
  <text x="598" y="479" fill="#35508A" font-family="Arial" font-size="18" font-weight="700">Upload Receipt</text>
  <rect x="554" y="508" width="190" height="42" rx="14" fill="#EEF9F2"/>
  <text x="609" y="535" fill="#2D6A48" font-family="Arial" font-size="18" font-weight="700">Run Report</text>

  <rect x="526" y="572" width="246" height="222" rx="26" fill="#F8FAFD" stroke="#E1E5ED"/>
  <text x="554" y="618" fill="#20252D" font-family="Arial" font-size="24" font-weight="700">Signals</text>
  <text x="554" y="658" fill="#5D6674" font-family="Arial" font-size="18">2 reports ready</text>
  <text x="554" y="694" fill="#5D6674" font-family="Arial" font-size="18">1 OCR needs review</text>
  <text x="554" y="730" fill="#5D6674" font-family="Arial" font-size="18">Telegram healthy</text>

  <rect x="908" y="324" width="426" height="470" rx="30" fill="#191D26" stroke="#353A47"/>
  <text x="942" y="372" fill="#F2F5FB" font-family="Arial" font-size="27" font-weight="700">This Month</text>
  <circle cx="1120" cy="552" r="108" stroke="#252A34" stroke-width="36"/>
  <circle cx="1120" cy="552" r="108" stroke="#7AA8FF" stroke-width="36" stroke-dasharray="190 680" transform="rotate(-90 1120 552)"/>
  <circle cx="1120" cy="552" r="108" stroke="#74D39B" stroke-width="36" stroke-dasharray="150 720" stroke-dashoffset="-190" transform="rotate(-90 1120 552)"/>
  <circle cx="1120" cy="552" r="108" stroke="#FFB45E" stroke-width="36" stroke-dasharray="110 760" stroke-dashoffset="-340" transform="rotate(-90 1120 552)"/>
  <circle cx="1120" cy="552" r="108" stroke="#FF8F8F" stroke-width="36" stroke-dasharray="80 790" stroke-dashoffset="-450" transform="rotate(-90 1120 552)"/>
  <text x="1078" y="546" fill="#8A93A2" font-family="Arial" font-size="16">Spent</text>
  <text x="1056" y="582" fill="#F3F6FC" font-family="Arial" font-size="34" font-weight="700">$1,284</text>
  <text x="942" y="740" fill="#A6AFBF" font-family="Arial" font-size="18">Food 42%</text>
  <text x="1090" y="740" fill="#A6AFBF" font-family="Arial" font-size="18">Utilities 28%</text>
  <text x="942" y="772" fill="#A6AFBF" font-family="Arial" font-size="18">Transport 18%</text>
  <text x="1090" y="772" fill="#A6AFBF" font-family="Arial" font-size="18">Other 12%</text>

  <rect x="1356" y="324" width="246" height="220" rx="26" fill="#1C212C" stroke="#353A47"/>
  <text x="1384" y="370" fill="#F2F5FB" font-family="Arial" font-size="24" font-weight="700">Fast Actions</text>
  <rect x="1384" y="396" width="190" height="42" rx="14" fill="#F3F6FC"/>
  <text x="1427" y="423" fill="#1B1F27" font-family="Arial" font-size="18" font-weight="700">Add Purchase</text>
  <rect x="1384" y="452" width="190" height="42" rx="14" fill="#24304A"/>
  <text x="1428" y="479" fill="#8EC2FF" font-family="Arial" font-size="18" font-weight="700">Upload Receipt</text>
  <rect x="1384" y="508" width="190" height="42" rx="14" fill="#22372D"/>
  <text x="1439" y="535" fill="#91E4B2" font-family="Arial" font-size="18" font-weight="700">Run Report</text>

  <rect x="1356" y="572" width="246" height="222" rx="26" fill="#1C212C" stroke="#353A47"/>
  <text x="1384" y="618" fill="#F2F5FB" font-family="Arial" font-size="24" font-weight="700">Signals</text>
  <text x="1384" y="658" fill="#A6AFBF" font-family="Arial" font-size="18">2 reports ready</text>
  <text x="1384" y="694" fill="#A6AFBF" font-family="Arial" font-size="18">1 OCR needs review</text>
  <text x="1384" y="730" fill="#A6AFBF" font-family="Arial" font-size="18">Telegram healthy</text>
</svg>
