<svg width="1680" height="980" viewBox="0 0 1680 980" fill="none" xmlns="http://www.w3.org/2000/svg">
  <rect width="1680" height="980" fill="#DBE5F4"/>
  <text x="60" y="72" fill="#1A2332" font-family="Arial" font-size="34" font-weight="700">Variant 2: Ops Dashboard</text>
  <text x="60" y="108" fill="#526175" font-family="Arial" font-size="18">More technical, queue-driven and status-focused. Better if we want the backend complexity to be visible.</text>

  <rect x="40" y="140" width="770" height="790" rx="28" fill="#F7FAFF" stroke="#C8D5E8" stroke-width="2"/>
  <rect x="870" y="140" width="770" height="790" rx="28" fill="#0E1729" stroke="#31405A" stroke-width="2"/>

  <text x="74" y="188" fill="#1B2432" font-family="Arial" font-size="28" font-weight="700">Light Theme</text>
  <text x="904" y="188" fill="#F2F6FF" font-family="Arial" font-size="28" font-weight="700">Dark Theme</text>

  <rect x="92" y="226" width="666" height="74" rx="22" fill="#EEF4FF" stroke="#D5E1F3"/>
  <text x="124" y="272" fill="#182434" font-family="Arial" font-size="31" font-weight="700">ReceiptOps Console</text>
  <rect x="642" y="244" width="88" height="34" rx="17" fill="#DDE9F8"/>
  <circle cx="660" cy="261" r="12" fill="#FFFFFF"/>
  <rect x="922" y="226" width="666" height="74" rx="22" fill="#152038" stroke="#31405A"/>
  <text x="954" y="272" fill="#F3F7FF" font-family="Arial" font-size="31" font-weight="700">ReceiptOps Console</text>
  <rect x="1472" y="244" width="88" height="34" rx="17" fill="#243351"/>
  <circle cx="1542" cy="261" r="12" fill="#59C5FF"/>

  <rect x="92" y="328" width="316" height="250" rx="24" fill="#FFFFFF" stroke="#D5E1F3"/>
  <text x="120" y="372" fill="#172332" font-family="Arial" font-size="26" font-weight="700">Spending Mix</text>
  <circle cx="248" cy="464" r="74" stroke="#E8EEF7" stroke-width="28"/>
  <circle cx="248" cy="464" r="74" stroke="#5BC0FF" stroke-width="28" stroke-dasharray="145 465" transform="rotate(-90 248 464)"/>
  <circle cx="248" cy="464" r="74" stroke="#7DD3A8" stroke-width="28" stroke-dasharray="110 500" stroke-dashoffset="-145" transform="rotate(-90 248 464)"/>
  <circle cx="248" cy="464" r="74" stroke="#F5B14C" stroke-width="28" stroke-dasharray="92 518" stroke-dashoffset="-255" transform="rotate(-90 248 464)"/>
  <circle cx="248" cy="464" r="74" stroke="#FF8573" stroke-width="28" stroke-dasharray="65 545" stroke-dashoffset="-347" transform="rotate(-90 248 464)"/>
  <text x="207" y="458" fill="#67758A" font-family="Arial" font-size="15">March</text>
  <text x="193" y="488" fill="#111C2A" font-family="Arial" font-size="28" font-weight="700">$1,284</text>
  <rect x="432" y="328" width="326" height="250" rx="24" fill="#FFFFFF" stroke="#D5E1F3"/>
  <text x="460" y="372" fill="#172332" font-family="Arial" font-size="26" font-weight="700">Queue Health</text>
  <rect x="460" y="402" width="270" height="46" rx="14" fill="#F1F6FD"/>
  <text x="484" y="431" fill="#33445D" font-family="Arial" font-size="18">OCR queue</text>
  <text x="688" y="431" fill="#111C2A" font-family="Arial" font-size="18" font-weight="700" text-anchor="end">4 active</text>
  <rect x="460" y="462" width="270" height="46" rx="14" fill="#F1F6FD"/>
  <text x="484" y="491" fill="#33445D" font-family="Arial" font-size="18">Report queue</text>
  <text x="688" y="491" fill="#111C2A" font-family="Arial" font-size="18" font-weight="700" text-anchor="end">2 active</text>
  <rect x="460" y="522" width="270" height="30" rx="12" fill="#DDEAFB"/>
  <rect x="460" y="522" width="198" height="30" rx="12" fill="#5BC0FF"/>

  <rect x="92" y="606" width="666" height="276" rx="24" fill="#FFFFFF" stroke="#D5E1F3"/>
  <text x="120" y="650" fill="#172332" font-family="Arial" font-size="26" font-weight="700">Report Jobs</text>
  <rect x="120" y="678" width="610" height="54" rx="14" fill="#F4F8FF"/>
  <text x="144" y="712" fill="#71829A" font-family="Arial" font-size="16">Type</text>
  <text x="350" y="712" fill="#71829A" font-family="Arial" font-size="16">Format</text>
  <text x="486" y="712" fill="#71829A" font-family="Arial" font-size="16">Status</text>
  <text x="620" y="712" fill="#71829A" font-family="Arial" font-size="16">Owner</text>
  <rect x="120" y="748" width="610" height="52" rx="14" fill="#EEF4FF"/>
  <text x="144" y="781" fill="#162231" font-family="Arial" font-size="16">MONTHLY_SPENDING</text>
  <text x="350" y="781" fill="#162231" font-family="Arial" font-size="16">PDF</text>
  <text x="486" y="781" fill="#16926A" font-family="Arial" font-size="16" font-weight="700">DONE</text>
  <text x="620" y="781" fill="#162231" font-family="Arial" font-size="16">me</text>
  <rect x="922" y="328" width="316" height="250" rx="24" fill="#152038" stroke="#31405A"/>
  <text x="950" y="372" fill="#F2F6FF" font-family="Arial" font-size="26" font-weight="700">Spending Mix</text>
  <circle cx="1078" cy="464" r="74" stroke="#21314B" stroke-width="28"/>
  <circle cx="1078" cy="464" r="74" stroke="#59C5FF" stroke-width="28" stroke-dasharray="145 465" transform="rotate(-90 1078 464)"/>
  <circle cx="1078" cy="464" r="74" stroke="#7DD3A8" stroke-width="28" stroke-dasharray="110 500" stroke-dashoffset="-145" transform="rotate(-90 1078 464)"/>
  <circle cx="1078" cy="464" r="74" stroke="#F5B14C" stroke-width="28" stroke-dasharray="92 518" stroke-dashoffset="-255" transform="rotate(-90 1078 464)"/>
  <circle cx="1078" cy="464" r="74" stroke="#FF8573" stroke-width="28" stroke-dasharray="65 545" stroke-dashoffset="-347" transform="rotate(-90 1078 464)"/>
  <text x="1037" y="458" fill="#8D9CB2" font-family="Arial" font-size="15">March</text>
  <text x="1023" y="488" fill="#F4F7FF" font-family="Arial" font-size="28" font-weight="700">$1,284</text>
  <rect x="1262" y="328" width="326" height="250" rx="24" fill="#152038" stroke="#31405A"/>
  <text x="1290" y="372" fill="#F2F6FF" font-family="Arial" font-size="26" font-weight="700">Queue Health</text>
  <rect x="1290" y="402" width="270" height="46" rx="14" fill="#1C2A46"/>
  <text x="1314" y="431" fill="#A3B3D0" font-family="Arial" font-size="18">OCR queue</text>
  <text x="1518" y="431" fill="#F4F7FF" font-family="Arial" font-size="18" font-weight="700" text-anchor="end">4 active</text>
  <rect x="1290" y="462" width="270" height="46" rx="14" fill="#1C2A46"/>
  <text x="1314" y="491" fill="#A3B3D0" font-family="Arial" font-size="18">Report queue</text>
  <text x="1518" y="491" fill="#F4F7FF" font-family="Arial" font-size="18" font-weight="700" text-anchor="end">2 active</text>
  <rect x="1290" y="522" width="270" height="30" rx="12" fill="#1F2F4B"/>
  <rect x="1290" y="522" width="198" height="30" rx="12" fill="#59C5FF"/>

  <rect x="922" y="606" width="666" height="276" rx="24" fill="#152038" stroke="#31405A"/>
  <text x="950" y="650" fill="#F2F6FF" font-family="Arial" font-size="26" font-weight="700">Report Jobs</text>
  <rect x="950" y="678" width="610" height="54" rx="14" fill="#1B2944"/>
  <text x="974" y="712" fill="#8FA1C1" font-family="Arial" font-size="16">Type</text>
  <text x="1180" y="712" fill="#8FA1C1" font-family="Arial" font-size="16">Format</text>
  <text x="1316" y="712" fill="#8FA1C1" font-family="Arial" font-size="16">Status</text>
  <text x="1450" y="712" fill="#8FA1C1" font-family="Arial" font-size="16">Owner</text>
  <rect x="950" y="748" width="610" height="52" rx="14" fill="#12203A"/>
  <text x="974" y="781" fill="#F2F6FF" font-family="Arial" font-size="16">MONTHLY_SPENDING</text>
  <text x="1180" y="781" fill="#F2F6FF" font-family="Arial" font-size="16">PDF</text>
  <text x="1316" y="781" fill="#55E0B5" font-family="Arial" font-size="16" font-weight="700">DONE</text>
  <text x="1450" y="781" fill="#F2F6FF" font-family="Arial" font-size="16">me</text>
</svg>

